<?xml version="1.0" encoding="UTF-8" standalone="no"?>
<svg
   viewBox="0 0 793.7007874015749 1122.5196850393702"
   width="793.7007874015749"
   height="1122.5196850393702"
   version="1.1"
   id="svg56"
   sodipodi:docname="circles.svg"
   inkscape:version="1.1.2 (b8e25be833, 2022-02-05)"
   xmlns:inkscape="http://www.inkscape.org/namespaces/inkscape"
   xmlns:sodipodi="http://sodipodi.sourceforge.net/DTD/sodipodi-0.dtd"
   xmlns="http://www.w3.org/2000/svg"
   xmlns:svg="http://www.w3.org/2000/svg">
  <sodipodi:namedview
     id="namedview58"
     pagecolor="#505050"
     bordercolor="#eeeeee"
     borderopacity="1"
     inkscape:pageshadow="0"
     inkscape:pageopacity="0"
     inkscape:pagecheckerboard="0"
     showgrid="false"
     inkscape:zoom="1.6409512"
     inkscape:cx="397.02582"
     inkscape:cy="756.26867"
     inkscape:window-width="3840"
     inkscape:window-height="2080"
     inkscape:window-x="-11"
     inkscape:window-y="-11"
     inkscape:window-maximized="1"
     inkscape:current-layer="g54" />
  <desc
     id="desc9">circles.dxf - scale = 25.4, origin = (0.0, 0.0), method = file</desc>
  <defs
     id="defs24">
    <marker
       id="DistanceX"
       orient="auto"
       refX="0.0"
       refY="0.0"
       style="overflow:visible">
      <path
         d="M 3,-3 L -3,3 M 0,-5 L  0,5"
         style="stroke:#000000; stroke-width:0.5"
         id="path11" />
    </marker>
    <pattern
       id="Hatch"
       patternUnits="userSpaceOnUse"
       width="8"
       height="8"
       x="0"
       y="0">
      <path
         d="M8 4 l-4,4"
         stroke="#000000"
         stroke-width="0.25"
         linecap="square"
         id="path14" />
      <path
         d="M6 2 l-4,4"
         stroke="#000000"
         stroke-width="0.25"
         linecap="square"
         id="path16" />
      <path
         d="M4 0 l-4,4"
         stroke="#000000"
         stroke-width="0.25"
         linecap="square"
         id="path18" />
    </pattern>
    <symbol
       id="*Model_Space" />
    <symbol
       id="*Paper_Space" />
    <symbol
       id="*Paper_Space0" />
  </defs>
  <g
     inkscape:groupmode="layer"
     inkscape:label="0"
     id="g54">
    <path
       d="m 135.61471,933.60487 a 18,18 0 1 0 -36.000001,0 18,18 0 1 0 36.000001,0 z"
       style="fill:none;stroke:#000000"
       id="path26" />
    <path
       d="m 135.61471,933.60487 a 18,18 0 1 0 -36.000001,0 18,18 0 1 0 36.000001,0 z"
       style="fill:none;stroke:#000000"
       id="path28" />
    <path
       d="m 50.414709,933.60487 a 4.8,4.8 0 1 0 -9.6,0 4.8,4.8 0 1 0 9.6,0 z"
       style="fill:none;stroke:#000000"
       id="path30" />
    <path
       d="m 50.414709,933.60487 a 4.8,4.8 0 1 0 -9.6,0 4.8,4.8 0 1 0 9.6,0 z"
       style="fill:none;stroke:#000000"
       id="path32" />
    <path
       d="m 60.06088,969.60487 a 4.8,4.8 0 1 0 -9.6,0 4.8,4.8 0 1 0 9.6,0 z"
       style="fill:none;stroke:#000000"
       id="path34" />
    <path
       d="m 86.414709,995.9587 a 4.8,4.8 0 1 0 -9.6,0 4.8,4.8 0 1 0 9.6,0 z"
       style="fill:none;stroke:#000000"
       id="path36" />
    <path
       d="m 60.06088,897.60487 a 4.8,4.8 0 1 0 -9.6,0 4.8,4.8 0 1 0 9.6,0 z"
       style="fill:none;stroke:#000000"
       id="path38" />
    <path
       d="m 86.414709,871.25104 a 4.8,4.8 0 1 0 -9.6,0 4.8,4.8 0 1 0 9.6,0 z"
       style="fill:none;stroke:#000000"
       id="path40" />
    <path
       d="m 122.41471,861.60487 a 4.8,4.8 0 1 0 -9.6,0 4.8,4.8 0 1 0 9.6,0 z"
       style="fill:none;stroke:#000000"
       id="path42" />
    <path
       d="m 158.41471,871.25104 a 4.8,4.8 0 1 0 -9.6,0 4.8,4.8 0 1 0 9.6,0 z"
       style="fill:none;stroke:#000000"
       id="path44" />
    <path
       d="m 184.76854,897.60487 a 4.8,4.8 0 1 0 -9.6,0 4.8,4.8 0 1 0 9.6,0 z"
       style="fill:none;stroke:#000000"
       id="path46" />
    <path
       d="m 194.41471,933.60487 a 4.8,4.8 0 1 0 -9.6,0 4.8,4.8 0 1 0 9.6,0 z"
       style="fill:none;stroke:#000000"
       id="path48" />
    <path
       d="m 184.76854,969.60487 a 4.8,4.8 0 1 0 -9.6,0 4.8,4.8 0 1 0 9.6,0 z"
       style="fill:none;stroke:#000000"
       id="path50" />
    <path
       d="m 158.41471,995.9587 a 4.8,4.8 0 1 0 -9.6,0 4.8,4.8 0 1 0 9.6,0 z"
       style="fill:none;stroke:#000000"
       id="path52" />
  </g>
</svg>
